<mxfile host="app.diagrams.net" modified="2021-01-08T11:51:07.186Z" agent="5.0 (Windows NT 10.0; Win64; x64) AppleWebKit/537.36 (KHTML, like Gecko) Chrome/87.0.4280.88 Safari/537.36" etag="pU882pCBrUqtUzedfk8X" version="14.1.1" type="github">
  <diagram id="Owtm409XgRJTrGUsXU6g" name="Page-1">
    <mxGraphModel dx="2074" dy="774" grid="1" gridSize="10" guides="1" tooltips="1" connect="1" arrows="1" fold="1" page="1" pageScale="1" pageWidth="827" pageHeight="1169" math="0" shadow="0">
      <root>
        <mxCell id="0" />
        <mxCell id="1" parent="0" />
        <mxCell id="JSzs0DYUMlTjXLvYXHMq-4" value="" style="rounded=1;whiteSpace=wrap;html=1;fillColor=none;dashed=1;" vertex="1" parent="1">
          <mxGeometry x="-174" y="65" width="150" height="690" as="geometry" />
        </mxCell>
        <mxCell id="JSzs0DYUMlTjXLvYXHMq-3" value="" style="rounded=1;whiteSpace=wrap;html=1;fillColor=none;dashed=1;" vertex="1" parent="1">
          <mxGeometry x="50" y="60" width="650" height="270" as="geometry" />
        </mxCell>
        <mxCell id="JSzs0DYUMlTjXLvYXHMq-1" value="" style="rounded=1;whiteSpace=wrap;html=1;" vertex="1" parent="1">
          <mxGeometry x="150" y="100" width="210" height="180" as="geometry" />
        </mxCell>
        <mxCell id="JSzs0DYUMlTjXLvYXHMq-2" value="" style="rounded=1;whiteSpace=wrap;html=1;" vertex="1" parent="1">
          <mxGeometry x="450" y="100" width="200" height="180" as="geometry" />
        </mxCell>
        <mxCell id="JSzs0DYUMlTjXLvYXHMq-5" value="" style="rounded=1;whiteSpace=wrap;html=1;fillColor=none;dashed=1;" vertex="1" parent="1">
          <mxGeometry x="50" y="410" width="650" height="340" as="geometry" />
        </mxCell>
        <mxCell id="JSzs0DYUMlTjXLvYXHMq-6" value="" style="rounded=1;whiteSpace=wrap;html=1;" vertex="1" parent="1">
          <mxGeometry x="150" y="510" width="210" height="200" as="geometry" />
        </mxCell>
        <mxCell id="JSzs0DYUMlTjXLvYXHMq-7" value="" style="rounded=1;whiteSpace=wrap;html=1;" vertex="1" parent="1">
          <mxGeometry x="450" y="510" width="200" height="200" as="geometry" />
        </mxCell>
        <mxCell id="JSzs0DYUMlTjXLvYXHMq-9" value="" style="html=1;verticalLabelPosition=bottom;align=center;labelBackgroundColor=#ffffff;verticalAlign=top;strokeWidth=2;shadow=0;dashed=0;shape=mxgraph.ios7.icons.cloud;" vertex="1" parent="1">
          <mxGeometry x="70" y="30" width="70" height="50" as="geometry" />
        </mxCell>
        <mxCell id="JSzs0DYUMlTjXLvYXHMq-11" value="" style="outlineConnect=0;dashed=0;verticalLabelPosition=bottom;verticalAlign=top;align=center;html=1;shape=mxgraph.aws3.office_building;fillColor=#7D7C7C;gradientColor=none;strokeColor=#000000;" vertex="1" parent="1">
          <mxGeometry x="90" y="375.25" width="50" height="69.5" as="geometry" />
        </mxCell>
        <mxCell id="JSzs0DYUMlTjXLvYXHMq-12" value="" style="shape=flexArrow;endArrow=classic;startArrow=classic;html=1;entryX=0;entryY=0.5;entryDx=0;entryDy=0;fillColor=#E6E6E6;" edge="1" parent="1" source="JSzs0DYUMlTjXLvYXHMq-1" target="JSzs0DYUMlTjXLvYXHMq-2">
          <mxGeometry width="50" height="50" relative="1" as="geometry">
            <mxPoint x="130" y="340" as="sourcePoint" />
            <mxPoint x="180" y="290" as="targetPoint" />
          </mxGeometry>
        </mxCell>
        <mxCell id="JSzs0DYUMlTjXLvYXHMq-15" value="" style="shape=flexArrow;endArrow=classic;startArrow=classic;html=1;fillColor=#E6E6E6;" edge="1" parent="1">
          <mxGeometry width="50" height="50" relative="1" as="geometry">
            <mxPoint x="255" y="330" as="sourcePoint" />
            <mxPoint x="255" y="410" as="targetPoint" />
          </mxGeometry>
        </mxCell>
        <mxCell id="JSzs0DYUMlTjXLvYXHMq-16" value="" style="shape=link;html=1;opacity=30;" edge="1" parent="1">
          <mxGeometry width="100" relative="1" as="geometry">
            <mxPoint x="50" y="360" as="sourcePoint" />
            <mxPoint x="710" y="360" as="targetPoint" />
          </mxGeometry>
        </mxCell>
        <mxCell id="JSzs0DYUMlTjXLvYXHMq-17" value="" style="shape=flexArrow;endArrow=classic;startArrow=classic;html=1;fillColor=#E6E6E6;" edge="1" parent="1">
          <mxGeometry width="50" height="50" relative="1" as="geometry">
            <mxPoint x="550" y="330" as="sourcePoint" />
            <mxPoint x="550" y="410" as="targetPoint" />
          </mxGeometry>
        </mxCell>
        <mxCell id="JSzs0DYUMlTjXLvYXHMq-18" value="" style="rounded=1;whiteSpace=wrap;html=1;dashed=1;" vertex="1" parent="1">
          <mxGeometry x="460" y="200" width="180" height="60" as="geometry" />
        </mxCell>
        <mxCell id="JSzs0DYUMlTjXLvYXHMq-19" value="Business Partners" style="rounded=1;whiteSpace=wrap;html=1;" vertex="1" parent="1">
          <mxGeometry x="464" y="205" width="80" height="50" as="geometry" />
        </mxCell>
        <mxCell id="JSzs0DYUMlTjXLvYXHMq-20" value="Government Agencies" style="rounded=1;whiteSpace=wrap;html=1;" vertex="1" parent="1">
          <mxGeometry x="555" y="205" width="80" height="50" as="geometry" />
        </mxCell>
        <mxCell id="JSzs0DYUMlTjXLvYXHMq-21" value="" style="shape=flexArrow;endArrow=classic;startArrow=classic;html=1;entryX=0;entryY=0.5;entryDx=0;entryDy=0;fillColor=#E6E6E6;" edge="1" parent="1">
          <mxGeometry width="50" height="50" relative="1" as="geometry">
            <mxPoint x="360" y="620" as="sourcePoint" />
            <mxPoint x="450" y="620" as="targetPoint" />
          </mxGeometry>
        </mxCell>
        <mxCell id="JSzs0DYUMlTjXLvYXHMq-22" value="" style="verticalLabelPosition=bottom;verticalAlign=top;html=1;shadow=0;dashed=0;strokeWidth=2;shape=mxgraph.android.phone2;strokeColor=#020912;" vertex="1" parent="1">
          <mxGeometry x="-114" y="150" width="30" height="60" as="geometry" />
        </mxCell>
        <mxCell id="JSzs0DYUMlTjXLvYXHMq-23" value="" style="html=1;verticalLabelPosition=bottom;labelBackgroundColor=#ffffff;verticalAlign=top;shadow=0;dashed=0;strokeWidth=2;shape=mxgraph.ios7.misc.ipad7inch;strokeColor=#020912;" vertex="1" parent="1">
          <mxGeometry x="-129" y="331" width="60" height="79" as="geometry" />
        </mxCell>
        <mxCell id="JSzs0DYUMlTjXLvYXHMq-24" value="" style="outlineConnect=0;gradientColor=none;fontColor=#545B64;strokeColor=none;dashed=0;verticalLabelPosition=bottom;verticalAlign=top;align=center;html=1;fontSize=12;fontStyle=0;aspect=fixed;shape=mxgraph.aws4.illustration_desktop;pointerEvents=1;fillColor=#020912;" vertex="1" parent="1">
          <mxGeometry x="-132" y="549" width="78.02" height="71" as="geometry" />
        </mxCell>
        <mxCell id="JSzs0DYUMlTjXLvYXHMq-25" value="" style="pointerEvents=1;shadow=0;dashed=0;html=1;strokeColor=none;labelPosition=center;verticalLabelPosition=bottom;verticalAlign=top;align=center;fillColor=#505050;shape=mxgraph.mscae.intune.user_group" vertex="1" parent="1">
          <mxGeometry x="-180" y="30" width="80" height="60" as="geometry" />
        </mxCell>
        <mxCell id="JSzs0DYUMlTjXLvYXHMq-26" value="" style="shape=flexArrow;endArrow=classic;startArrow=classic;html=1;fillColor=#E6E6E6;exitX=0;exitY=0.5;exitDx=0;exitDy=0;entryX=0.993;entryY=0.186;entryDx=0;entryDy=0;entryPerimeter=0;" edge="1" parent="1" source="JSzs0DYUMlTjXLvYXHMq-3" target="JSzs0DYUMlTjXLvYXHMq-4">
          <mxGeometry width="50" height="50" relative="1" as="geometry">
            <mxPoint x="265" y="340" as="sourcePoint" />
            <mxPoint x="265" y="420" as="targetPoint" />
          </mxGeometry>
        </mxCell>
        <mxCell id="JSzs0DYUMlTjXLvYXHMq-27" value="" style="shape=flexArrow;endArrow=classic;startArrow=classic;html=1;fillColor=#E6E6E6;entryX=1.007;entryY=0.739;entryDx=0;entryDy=0;entryPerimeter=0;" edge="1" parent="1" target="JSzs0DYUMlTjXLvYXHMq-4">
          <mxGeometry width="50" height="50" relative="1" as="geometry">
            <mxPoint x="50" y="575" as="sourcePoint" />
            <mxPoint x="-15.050000000000182" y="203.34000000000003" as="targetPoint" />
          </mxGeometry>
        </mxCell>
      </root>
    </mxGraphModel>
  </diagram>
</mxfile>
